HIERARCHY
ROOT Hips
{
	OFFSET 0.000000 97.167313 0.000000
	CHANNELS 6 Xposition Yposition Zposition Xrotation Yrotation Zrotation
	JOINT Spine
	{
		OFFSET 0.000000 13.784798 0.064400
		CHANNELS 3 Xrotation Yrotation Zrotation
		JOINT Spine1
		{
			OFFSET 0.000000 12.037903 0.404700
			CHANNELS 3 Xrotation Yrotation Zrotation
			JOINT Spine2
			{
				OFFSET 0.000000 17.795601 0.420200
				CHANNELS 3 Xrotation Yrotation Zrotation
				JOINT Neck
				{
					OFFSET 0.000000 39.131302 11.954600
					CHANNELS 3 Xrotation Yrotation Zrotation
					JOINT Head
					{
						OFFSET 0.000000 14.456192 15.627699
						CHANNELS 3 Xrotation Yrotation Zrotation
						JOINT HeadTop_End
						{
							OFFSET 0.000000 15.703506 7.603401
							CHANNELS 3 Xrotation Yrotation Zrotation
							End Site
							{
								OFFSET 0.000000 17.447403 0.000000
							}
						}
					}
				}
				JOINT LeftShoulder
				{
					OFFSET 17.399500 24.608795 1.168800
					CHANNELS 3 Xrotation Yrotation Zrotation
					JOINT LeftArm
					{
						OFFSET 18.980635 5.765305 1.818600
						CHANNELS 3 Xrotation Yrotation Zrotation
						JOINT LeftForeArm
						{
							OFFSET 49.290169 0.000000 0.000000
							CHANNELS 3 Xrotation Yrotation Zrotation
							JOINT LeftHand
							{
								OFFSET 31.562012 0.000000 0.000000
								CHANNELS 3 Xrotation Yrotation Zrotation
								JOINT LeftHandThumb1
								{
									OFFSET 6.133995 -4.388519 7.076070
									CHANNELS 3 Xrotation Yrotation Zrotation
									JOINT LeftHandThumb2
									{
										OFFSET 6.037666 -3.485840 3.485847
										CHANNELS 3 Xrotation Yrotation Zrotation
										JOINT LeftHandThumb3
										{
											OFFSET 6.496506 -3.750763 3.750761
											CHANNELS 3 Xrotation Yrotation Zrotation
											JOINT LeftHandThumb4
											{
												OFFSET 5.616882 -3.242905 3.242910
												CHANNELS 3 Xrotation Yrotation Zrotation
												End Site
												{
													OFFSET -1.254608 7.132141 0.375429
												}
											}
										}
									}
								}
								JOINT LeftHandPinky1
								{
									OFFSET 18.920792 -0.453171 -11.426712
									CHANNELS 3 Xrotation Yrotation Zrotation
									JOINT LeftHandPinky2
									{
										OFFSET 4.919586 0.000000 0.000000
										CHANNELS 3 Xrotation Yrotation Zrotation
										JOINT LeftHandPinky3
										{
											OFFSET 5.233047 0.000000 0.000000
											CHANNELS 3 Xrotation Yrotation Zrotation
											JOINT LeftHandPinky4
											{
												OFFSET 5.571716 0.000000 0.000000
												CHANNELS 3 Xrotation Yrotation Zrotation
												End Site
												{
													OFFSET -3.459808 4.342407 -0.466164
												}
											}
										}
									}
								}
								JOINT LeftHandRing1
								{
									OFFSET 22.726120 -0.094986 -6.500475
									CHANNELS 3 Xrotation Yrotation Zrotation
									JOINT LeftHandRing2
									{
										OFFSET 6.408615 0.000000 0.000000
										CHANNELS 3 Xrotation Yrotation Zrotation
										JOINT LeftHandRing3
										{
											OFFSET 6.150223 0.000000 0.000000
											CHANNELS 3 Xrotation Yrotation Zrotation
											JOINT LeftHandRing4
											{
												OFFSET 6.145386 0.000000 0.000000
												CHANNELS 3 Xrotation Yrotation Zrotation
												End Site
												{
													OFFSET -3.671402 4.923981 -0.202372
												}
											}
										}
									}
								}
								JOINT LeftHandMiddle1
								{
									OFFSET 23.373947 0.000000 0.000001
									CHANNELS 3 Xrotation Yrotation Zrotation
									JOINT LeftHandMiddle2
									{
										OFFSET 6.996567 0.000000 0.000000
										CHANNELS 3 Xrotation Yrotation Zrotation
										JOINT LeftHandMiddle3
										{
											OFFSET 7.015945 0.000000 0.000000
											CHANNELS 3 Xrotation Yrotation Zrotation
											JOINT LeftHandMiddle4
											{
												OFFSET 7.721573 0.000000 0.000000
												CHANNELS 3 Xrotation Yrotation Zrotation
												End Site
												{
													OFFSET -4.651108 6.158463 0.251582
												}
											}
										}
									}
								}
								JOINT LeftHandIndex1
								{
									OFFSET 21.310577 -0.490082 6.209344
									CHANNELS 3 Xrotation Yrotation Zrotation
									JOINT LeftHandIndex2
									{
										OFFSET 7.536453 0.000000 0.000000
										CHANNELS 3 Xrotation Yrotation Zrotation
										JOINT LeftHandIndex3
										{
											OFFSET 7.512344 0.000000 0.000000
											CHANNELS 3 Xrotation Yrotation Zrotation
											JOINT LeftHandIndex4
											{
												OFFSET 10.212402 0.000000 0.000001
												CHANNELS 3 Xrotation Yrotation Zrotation
												End Site
												{
													OFFSET -5.180801 8.690506 1.388433
												}
											}
										}
									}
								}
							}
						}
					}
				}
				JOINT RightShoulder
				{
					OFFSET -17.399500 24.608795 1.168800
					CHANNELS 3 Xrotation Yrotation Zrotation
					JOINT RightArm
					{
						OFFSET -18.980635 5.765305 1.818600
						CHANNELS 3 Xrotation Yrotation Zrotation
						JOINT RightForeArm
						{
							OFFSET -49.290169 0.000000 0.000000
							CHANNELS 3 Xrotation Yrotation Zrotation
							JOINT RightHand
							{
								OFFSET -31.562012 0.000000 0.000000
								CHANNELS 3 Xrotation Yrotation Zrotation
								JOINT RightHandThumb1
								{
									OFFSET -6.133995 -4.388519 7.076070
									CHANNELS 3 Xrotation Yrotation Zrotation
									JOINT RightHandThumb2
									{
										OFFSET -6.037666 -3.485840 3.485847
										CHANNELS 3 Xrotation Yrotation Zrotation
										JOINT RightHandThumb3
										{
											OFFSET -6.496506 -3.750763 3.750761
											CHANNELS 3 Xrotation Yrotation Zrotation
											JOINT RightHandThumb4
											{
												OFFSET -5.616882 -3.242905 3.242910
												CHANNELS 3 Xrotation Yrotation Zrotation
												End Site
												{
													OFFSET 1.254608 7.132141 0.375429
												}
											}
										}
									}
								}
								JOINT RightHandIndex1
								{
									OFFSET -21.310577 -0.490082 6.209344
									CHANNELS 3 Xrotation Yrotation Zrotation
									JOINT RightHandIndex2
									{
										OFFSET -7.536453 0.000000 0.000000
										CHANNELS 3 Xrotation Yrotation Zrotation
										JOINT RightHandIndex3
										{
											OFFSET -7.512344 0.000000 0.000000
											CHANNELS 3 Xrotation Yrotation Zrotation
											JOINT RightHandIndex4
											{
												OFFSET -10.212402 0.000000 0.000001
												CHANNELS 3 Xrotation Yrotation Zrotation
												End Site
												{
													OFFSET 5.180801 8.690506 1.388433
												}
											}
										}
									}
								}
								JOINT RightHandMiddle1
								{
									OFFSET -23.373947 0.000000 0.000001
									CHANNELS 3 Xrotation Yrotation Zrotation
									JOINT RightHandMiddle2
									{
										OFFSET -6.996567 0.000000 0.000000
										CHANNELS 3 Xrotation Yrotation Zrotation
										JOINT RightHandMiddle3
										{
											OFFSET -7.015945 0.000000 0.000000
											CHANNELS 3 Xrotation Yrotation Zrotation
											JOINT RightHandMiddle4
											{
												OFFSET -7.721573 0.000000 0.000000
												CHANNELS 3 Xrotation Yrotation Zrotation
												End Site
												{
													OFFSET 4.651108 6.158463 0.251582
												}
											}
										}
									}
								}
								JOINT RightHandRing1
								{
									OFFSET -22.726120 -0.094986 -6.500475
									CHANNELS 3 Xrotation Yrotation Zrotation
									JOINT RightHandRing2
									{
										OFFSET -6.408615 0.000000 0.000000
										CHANNELS 3 Xrotation Yrotation Zrotation
										JOINT RightHandRing3
										{
											OFFSET -6.150223 0.000000 0.000000
											CHANNELS 3 Xrotation Yrotation Zrotation
											JOINT RightHandRing4
											{
												OFFSET -6.145386 0.000000 0.000000
												CHANNELS 3 Xrotation Yrotation Zrotation
												End Site
												{
													OFFSET 3.671402 4.923981 -0.202372
												}
											}
										}
									}
								}
								JOINT RightHandPinky1
								{
									OFFSET -18.920792 -0.453171 -11.426712
									CHANNELS 3 Xrotation Yrotation Zrotation
									JOINT RightHandPinky2
									{
										OFFSET -4.919586 0.000000 0.000000
										CHANNELS 3 Xrotation Yrotation Zrotation
										JOINT RightHandPinky3
										{
											OFFSET -5.233047 0.000000 0.000000
											CHANNELS 3 Xrotation Yrotation Zrotation
											JOINT RightHandPinky4
											{
												OFFSET -5.571716 0.000000 0.000000
												CHANNELS 3 Xrotation Yrotation Zrotation
												End Site
												{
													OFFSET 3.459808 4.342407 -0.466164
												}
											}
										}
									}
								}
							}
						}
					}
				}
			}
		}
	}
	JOINT LeftUpLeg
	{
		OFFSET 19.899099 -7.885101 -3.429500
		CHANNELS 3 Xrotation Yrotation Zrotation
		JOINT LeftLeg
		{
			OFFSET 1.745560 -36.997807 10.304700
			CHANNELS 3 Xrotation Yrotation Zrotation
			JOINT LeftFoot
			{
				OFFSET -1.745558 -29.803308 -13.615400
				CHANNELS 3 Xrotation Yrotation Zrotation
				JOINT LeftToeBase
				{
					OFFSET 1.181900 -18.539904 15.226099
					CHANNELS 3 Xrotation Yrotation Zrotation
					JOINT LeftToe_End
					{
						OFFSET -0.863701 1.402801 16.534700
						CHANNELS 3 Xrotation Yrotation Zrotation
						End Site
						{
							OFFSET 0.000000 16.616566 0.000000
						}
					}
				}
			}
		}
	}
	JOINT RightUpLeg
	{
		OFFSET -19.899099 -7.885101 -3.429500
		CHANNELS 3 Xrotation Yrotation Zrotation
		JOINT RightLeg
		{
			OFFSET -1.745560 -36.997807 10.304700
			CHANNELS 3 Xrotation Yrotation Zrotation
			JOINT RightFoot
			{
				OFFSET 1.745558 -29.803308 -13.615400
				CHANNELS 3 Xrotation Yrotation Zrotation
				JOINT RightToeBase
				{
					OFFSET -1.181900 -18.539904 15.226099
					CHANNELS 3 Xrotation Yrotation Zrotation
					JOINT RightToe_End
					{
						OFFSET 0.863701 1.402801 16.534700
						CHANNELS 3 Xrotation Yrotation Zrotation
						End Site
						{
							OFFSET 0.000000 16.616566 0.000000
						}
					}
				}
			}
		}
	}
}
MOTION
Frames: 4
Frame Time: 0.033333
0.141633 88.526558 3.665365 4.591510 -0.997226 -0.844591 2.606555 1.933615 -1.132482 1.209226 1.139482 -0.566845 1.213286 1.127615 -0.580166 -3.220484 -0.680818 -0.844955 -10.164467 -4.938223 2.390010 -0.000000 -0.000000 0.000000 -2.477352 -9.272776 -6.126632 11.083101 2.899773 -61.551609 0.000010 -30.906364 0.000003 16.449910 1.887994 -6.261471 16.504227 7.216452 -4.634092 7.479289 23.868687 2.328147 -5.444142 13.458743 16.564315 -0.000002 -0.000001 -0.000001 2.641261 12.996507 -14.169038 0.455183 2.265936 -22.713565 0.275270 1.776372 -17.616149 0.000002 0.000001 -0.000000 1.905370 10.156595 -14.321628 0.455176 2.265940 -22.713536 0.275281 1.776370 -17.616158 0.000002 0.000002 0.000003 0.258597 3.857845 -14.787949 0.455176 2.265945 -22.713529 0.275270 1.776369 -17.616163 -0.000001 0.000000 0.000004 -0.640876 0.490917 -15.111029 0.455178 2.265939 -22.713552 0.275272 1.776371 -17.616158 -0.000000 0.000001 0.000001 -0.049866 2.631082 14.011437 15.904268 8.992835 51.642787 0.000006 42.666146 -0.000010 -6.987750 0.793995 12.515525 15.129743 -5.447667 5.213192 7.684651 -25.707545 -2.968364 -3.908389 -19.529418 -17.600622 -0.000000 0.000002 0.000003 -0.670229 -0.035294 14.371538 0.363133 -1.804555 22.752677 0.219624 -1.414724 17.647851 0.000003 0.000002 0.000001 0.189006 -3.419528 14.112937 0.363122 -1.804564 22.752668 0.219626 -1.414722 17.647850 -0.000003 0.000001 -0.000009 1.769013 -9.747628 13.762682 0.363124 -1.804550 22.752690 0.219630 -1.414721 17.647855 0.000001 -0.000000 -0.000005 2.478256 -12.599603 13.660976 0.363122 -1.804550 22.752690 0.219626 -1.414726 17.647855 -0.000000 -0.000001 0.000004 -20.491095 8.769050 15.345306 27.275428 0.404546 -0.162196 -10.975981 1.616254 -11.396417 -0.000019 0.000005 -0.000011 0.000000 -0.000000 -0.000000 -20.948327 -7.209306 -12.152728 26.020050 -2.387413 -1.485479 -9.272200 -2.319446 12.375484 0.485605 -0.000013 -0.000005 0.000000 -0.000002 -0.000000 
0.149454 88.522697 3.656240 4.579084 -0.962799 -0.830100 2.600550 1.935969 -1.124870 1.203208 1.140923 -0.564631 1.207253 1.129075 -0.578065 -3.185720 -0.697545 -0.867112 -10.182599 -5.057817 2.419301 -0.000000 -0.000000 0.000000 -2.476485 -9.281110 -6.122521 11.010653 2.974676 -61.510491 0.000010 -30.829380 -0.000011 16.499633 1.917057 -6.225492 16.504233 7.216453 -4.634092 7.479284 23.868687 2.328147 -5.444148 13.458741 16.564314 -0.000003 -0.000000 0.000000 2.641265 12.996505 -14.169037 0.455184 2.265939 -22.713564 0.275270 1.776372 -17.616147 0.000002 -0.000002 -0.000001 1.905368 10.156595 -14.321627 0.455175 2.265942 -22.713536 0.275280 1.776372 -17.616154 -0.000001 0.000000 0.000003 0.258600 3.857843 -14.787949 0.455175 2.265944 -22.713529 0.275266 1.776368 -17.616161 -0.000000 -0.000001 0.000009 -0.640876 0.490919 -15.111025 0.455167 2.265943 -22.713552 0.275274 1.776374 -17.616152 -0.000002 0.000001 0.000001 -0.051108 2.626075 13.985797 15.936764 8.960058 51.614848 0.000021 42.698490 -0.000013 -7.042769 0.790766 12.484681 15.129747 -5.447665 5.213195 7.684657 -25.707536 -2.968358 -3.908385 -19.529420 -17.600627 0.000002 0.000003 0.000003 -0.670230 -0.035297 14.371536 0.363135 -1.804555 22.752680 0.219623 -1.414724 17.647855 0.000001 -0.000001 -0.000002 0.189007 -3.419528 14.112940 0.363118 -1.804564 22.752668 0.219624 -1.414721 17.647858 0.000001 0.000000 -0.000004 1.769015 -9.747631 13.762685 0.363122 -1.804553 22.752692 0.219632 -1.414721 17.647855 0.000002 -0.000000 0.000000 2.478256 -12.599604 13.660980 0.363118 -1.804550 22.752689 0.219630 -1.414728 17.647851 0.000002 -0.000002 0.000004 -20.497519 8.759784 15.313052 27.277619 0.390777 -0.159258 -10.961363 1.609938 -11.380720 -0.000023 -0.000004 -0.000008 0.000000 -0.000000 0.000000 -20.944814 -7.224273 -12.193180 26.046858 -2.389173 -1.477472 -9.290633 -2.323460 12.384368 0.492474 -0.000003 -0.000004 0.000000 -0.000001 -0.000000 
0.156313 88.518295 3.650166 4.566832 -0.936570 -0.816645 2.600191 1.939589 -1.116416 1.199947 1.143038 -0.561710 1.203990 1.131189 -0.575288 -3.178710 -0.701313 -0.887153 -10.240297 -5.094826 2.389857 -0.000000 0.000000 -0.000000 -2.478109 -9.291190 -6.135737 10.936664 3.022785 -61.505293 0.000003 -30.730370 -0.000012 16.528267 1.933028 -6.184358 16.504223 7.216450 -4.634090 7.479287 23.868689 2.328146 -5.444138 13.458743 16.564314 0.000003 -0.000002 0.000000 2.641260 12.996510 -14.169041 0.455183 2.265939 -22.713564 0.275269 1.776374 -17.616149 0.000002 -0.000002 -0.000001 1.905363 10.156592 -14.321629 0.455176 2.265942 -22.713540 0.275280 1.776372 -17.616154 -0.000002 -0.000002 0.000001 0.258598 3.857843 -14.787952 0.455179 2.265946 -22.713531 0.275274 1.776372 -17.616161 0.000001 0.000000 0.000004 -0.640878 0.490916 -15.111032 0.455175 2.265947 -22.713548 0.275277 1.776374 -17.616163 0.000002 0.000003 0.000002 -0.051355 2.620886 13.986843 15.965077 8.939154 51.563516 0.000028 42.741900 -0.000020 -7.093007 0.807077 12.460157 15.129743 -5.447665 5.213192 7.684655 -25.707539 -2.968363 -3.908391 -19.529423 -17.600629 0.000001 0.000000 0.000002 -0.670230 -0.035294 14.371536 0.363132 -1.804556 22.752678 0.219626 -1.414726 17.647853 -0.000000 -0.000003 -0.000002 0.189010 -3.419528 14.112943 0.363117 -1.804561 22.752668 0.219626 -1.414724 17.647853 -0.000002 0.000003 -0.000001 1.769017 -9.747629 13.762682 0.363121 -1.804553 22.752695 0.219633 -1.414723 17.647853 0.000000 -0.000001 -0.000005 2.478257 -12.599603 13.660979 0.363123 -1.804550 22.752690 0.219627 -1.414721 17.647860 0.000003 -0.000006 0.000001 -20.497662 8.749134 15.282186 27.282316 0.383887 -0.151460 -10.953554 1.608169 -11.372688 0.000059 -0.000005 -0.000004 0.000000 0.000000 0.000000 -20.938285 -7.216387 -12.216496 26.074206 -2.408502 -1.492205 -9.306475 -2.331474 12.410907 0.501388 -0.000006 -0.000002 0.000000 0.000001 0.000000 
0.165257 88.512794 3.645981 4.555201 -0.908743 -0.803491 2.599005 1.943458 -1.107549 1.195942 1.145211 -0.558799 1.200005 1.133343 -0.572532 -3.178495 -0.701556 -0.904121 -10.291952 -5.105679 2.342205 0.000000 0.000000 0.000000 -2.476087 -9.298509 -6.123605 10.864581 3.055944 -61.553911 0.000016 -30.623198 0.000009 16.587268 1.953670 -6.157299 16.504232 7.216453 -4.634089 7.479291 23.868689 2.328147 -5.444146 13.458745 16.564314 -0.000001 -0.000005 -0.000003 2.641259 12.996513 -14.169042 0.455182 2.265936 -22.713565 0.275270 1.776375 -17.616151 0.000002 0.000000 -0.000002 1.905370 10.156594 -14.321624 0.455178 2.265943 -22.713536 0.275278 1.776371 -17.616154 -0.000002 0.000000 0.000003 0.258600 3.857845 -14.787949 0.455175 2.265944 -22.713533 0.275271 1.776371 -17.616154 0.000001 0.000001 0.000006 -0.640874 0.490917 -15.111027 0.455169 2.265940 -22.713545 0.275274 1.776376 -17.616154 0.000001 0.000001 0.000002 -0.050810 2.622436 13.998010 15.980684 8.910797 51.510476 -0.000002 42.765047 0.000029 -7.135408 0.823325 12.431607 15.129745 -5.447663 5.213190 7.684653 -25.707545 -2.968364 -3.908382 -19.529418 -17.600624 -0.000001 0.000001 0.000002 -0.670230 -0.035293 14.371534 0.363130 -1.804557 22.752680 0.219623 -1.414727 17.647850 -0.000001 0.000000 -0.000001 0.189006 -3.419527 14.112936 0.363122 -1.804561 22.752672 0.219623 -1.414721 17.647853 -0.000002 0.000003 -0.000006 1.769015 -9.747627 13.762682 0.363124 -1.804553 22.752695 0.219633 -1.414718 17.647851 0.000001 0.000001 -0.000005 2.478255 -12.599606 13.660980 0.363124 -1.804552 22.752694 0.219627 -1.414726 17.647856 -0.000001 -0.000000 0.000006 -20.498100 8.734875 15.247455 27.291882 0.378494 -0.140950 -10.950301 1.608484 -11.364784 -0.000018 0.000003 -0.000008 -0.000000 -0.000000 -0.000000 -20.932032 -7.208435 -12.241600 26.101541 -2.423489 -1.505015 -9.317491 -2.343640 12.436992 0.506177 0.000000 0.000003 -0.000000 0.000000 -0.000000 
